Coordinates
version=1
nRows=17
nColumns=40
inDegrees=yes

Units are S.I. units (second, meters, Newtons, ...)
Angles are in degrees.

endheader
time	pelvis_tilt	pelvis_list	pelvis_rotation	pelvis_tx	pelvis_ty	pelvis_tz	hip_flexion_r	hip_adduction_r	hip_rotation_r	knee_angle_r	knee_angle_r_beta	ankle_angle_r	subtalar_angle_r	mtp_angle_r	hip_flexion_l	hip_adduction_l	hip_rotation_l	knee_angle_l	knee_angle_l_beta	ankle_angle_l	subtalar_angle_l	mtp_angle_l	lumbar_extension	lumbar_bending	lumbar_rotation	arm_flex_r	arm_add_r	arm_rot_r	elbow_flex_r	pro_sup_r	wrist_flex_r	wrist_dev_r	arm_flex_l	arm_add_l	arm_rot_l	elbow_flex_l	pro_sup_l	wrist_flex_l	wrist_dev_l
     31.31000000	     -2.03812816	     -2.83817818	     -0.82209125	      1.03181406	      0.92182705	      0.47006145	     20.62691589	     -2.44943805	    -11.46944139	     25.66899784	     25.66899784	      7.79256323	     -9.47676894	     -3.55780138	      2.83655130	     -9.40588341	    -10.30718984	     30.94477341	     30.94477341	     16.49230252	    -11.89276342	     -5.28119261	     -9.13751879	      5.17700646	      0.07268874	      5.59136876	    -15.99862016	     -8.21413725	     39.21004075	     45.77452277	      0.00000000	      0.00000000	      9.73699981	    -13.07612200	     -7.18602222	     34.47478631	     46.80166701	      0.00000000	      0.00000000
     31.32371429	     -1.78982510	     -2.99223875	     -0.67515519	      1.03277348	      0.92258539	      0.47314663	     19.80720920	     -2.14183657	    -11.81850203	     25.56104920	     25.56104920	      8.29118406	     -9.19860928	     -3.75731559	      4.40025626	    -10.22610814	     -9.43968281	     34.92422544	     34.92422544	     15.06918147	    -13.21588560	     -5.80054415	     -9.34726316	      5.38710864	      0.32095378	      6.97832853	    -16.39683524	     -8.32338936	     40.02934059	     45.75864493	      0.00000000	      0.00000000	      8.91301828	    -12.73374938	     -7.04197867	     33.58009555	     46.76374537	      0.00000000	      0.00000000
     31.33742857	     -1.78131781	     -3.03197640	     -0.48095151	      1.03348036	      0.92306572	      0.47599766	     19.22685973	     -2.01423950	    -12.32259338	     25.40085766	     25.40085766	      8.70743878	     -8.63873643	     -4.04838554	      6.37646993	    -10.79813108	     -8.26739445	     38.91243338	     38.91243338	     12.80923421	    -15.14398258	     -7.12934130	     -9.22059335	      5.49067373	      0.33747074	      8.03639395	    -16.79032745	     -8.03427143	     41.95422458	     45.67779194	      0.00000000	      0.00000000	      8.39400647	    -12.39834132	     -6.54821497	     31.13178352	     46.66192883	      0.00000000	      0.00000000
     31.35114286	     -1.60024938	     -3.19528615	     -0.34925285	      1.03405204	      0.92377034	      0.47896147	     18.43003609	     -1.67696745	    -12.66997788	     25.14744419	     25.14744419	      9.06665060	     -8.32811693	     -4.16925504	      8.28220251	    -11.58883530	     -7.37174930	     43.05198923	     43.05198923	     11.06380550	    -16.04284856	     -7.18762700	     -9.38653693	      5.68034855	      0.82969369	      9.37759555	    -17.25981333	     -8.12178567	     42.73712987	     45.66197125	      0.00000000	      0.00000000	      7.61034245	    -11.97335071	     -6.42265081	     30.58764793	     46.62680979	      0.00000000	      0.00000000
     31.36485714	     -1.57229428	     -3.33582657	     -0.16629607	      1.03438342	      0.92423806	      0.48171961	     17.79698082	     -1.39285887	    -13.10425636	     24.86717114	     24.86717114	      9.40308070	     -7.95161142	     -4.29978534	     10.45139148	    -12.24669736	     -6.29805382	     47.08082256	     47.08082256	      9.29793154	    -16.85102200	     -6.81117320	     -9.34845362	      5.84915932	      1.03417035	     10.74872980	    -17.58726678	     -8.16510747	     43.82199347	     45.63233056	      0.00000000	      0.00000000	      6.64920407	    -11.61568358	     -6.26505582	     29.88690892	     46.58365954	      0.00000000	      0.00000000
     31.37857143	     -1.44536396	     -3.40515160	     -0.00215134	      1.03453713	      0.92484858	      0.48429745	     17.09639588	     -1.18595139	    -13.44427200	     24.62753692	     24.62753692	      9.66838978	     -7.59421329	     -4.39345200	     12.50008300	    -12.74980539	     -5.29795320	     50.84058931	     50.84058931	      7.69691714	    -17.49280167	     -6.09402332	     -9.48953344	      5.93362874	      1.33541177	     12.21436089	    -17.95290980	     -8.18935418	     44.95075737	     45.60078586	      0.00000000	      0.00000000	      5.80792882	    -11.27847916	     -6.12635805	     29.33687504	     46.54558025	      0.00000000	      0.00000000
     31.39228571	     -1.47668285	     -3.35915002	      0.23466083	      1.03448208	      0.92528284	      0.48646427	     16.57204629	     -1.18688294	    -14.00424232	     24.40407173	     24.40407173	     10.02633081	     -6.94868395	     -4.53637923	     14.95348601	    -12.82840729	     -3.90417566	     54.76881683	     54.76881683	      8.64510446	    -17.11271631	      0.98630955	     -9.49058499	      5.89017824	      1.54777268	     12.64761355	    -18.68302500	     -6.92446303	     48.73269797	     45.41218786	      0.00000000	      0.00000000	      4.84500526	    -11.02980141	     -5.45788118	     28.77661521	     46.40004925	      0.00000000	      0.00000000
     31.40600000	     -1.40596099	     -3.38992201	      0.46563132	      1.03432663	      0.92588624	      0.48862735	     15.92565982	     -1.02292950	    -14.32550722	     24.10941344	     24.10941344	     10.28916258	     -6.69083911	     -4.55245210	     17.00728435	    -13.08573448	     -2.90907170	     57.76566260	     57.76566260	      7.99838381	    -17.25877857	      3.19752444	     -9.59928913	      5.91415944	      1.61340011	     14.09457235	    -18.92327858	     -6.78692941	     50.34025031	     45.36566472	      0.00000000	      0.00000000	      3.78909562	    -10.77962892	     -5.11128103	     28.51865801	     46.31378829	      0.00000000	      0.00000000
     31.41971429	     -1.35763859	     -3.46255143	      0.72220915	      1.03404293	      0.92650867	      0.49062770	     15.26745771	     -0.79677056	    -14.62267412	     23.71774329	     23.71774329	     10.50057453	     -6.53657201	     -4.54482995	     18.92703794	    -13.35150235	     -2.02797222	     60.08802592	     60.08802592	      6.99490531	    -17.58664872	      3.71485206	     -9.67465866	      5.95338365	      2.03060840	     15.48005725	    -19.29835330	     -6.89482130	     51.20961030	     45.34870808	      0.00000000	      0.00000000	      3.02898327	    -10.39967486	     -5.03133586	     28.28244489	     46.28584736	      0.00000000	      0.00000000
     31.43342857	     -1.28945345	     -3.39195167	      1.03778860	      1.03366009	      0.92730032	      0.49221278	     14.56242764	     -0.76080875	    -14.98151601	     23.28323193	     23.28323193	     10.69334728	     -6.24653969	     -4.64237926	     20.77778609	    -13.31182837	     -1.16630355	     61.98116703	     61.98116703	      7.24430342	    -17.58709987	      6.68050846	     -9.83312870	      5.89684880	      1.83638352	     16.75792499	    -19.42427127	     -6.56988471	     53.79565718	     45.25834052	      0.00000000	      0.00000000	      1.78961741	    -10.21264850	     -4.97890091	     28.50053711	     46.24589862	      0.00000000	      0.00000000
     31.44714286	     -1.31623965	     -3.44304802	      1.38542202	      1.03315516	      0.92802727	      0.49373011	     13.91209644	     -0.54963248	    -15.27250447	     22.71785963	     22.71785963	     10.81798149	     -6.13277487	     -4.59154582	     22.54813407	    -13.42311077	     -0.44420729	     63.11116988	     63.11116988	      6.86675421	    -17.78913611	      7.13155219	     -9.78396124	      5.90892427	      2.21574453	     18.02488197	    -19.75971393	     -6.64189320	     54.73120685	     45.23755053	      0.00000000	      0.00000000	      1.11352515	     -9.85756982	     -4.94013319	     28.35160239	     46.22617666	      0.00000000	      0.00000000
     31.46085714	     -1.31072272	     -3.39843663	      1.77071882	      1.03254748	      0.92898176	      0.49492739	     13.13272127	     -0.43608104	    -15.63492795	     21.95396329	     21.95396329	     10.88685149	     -5.97440407	     -4.59361855	     24.12098222	    -13.37299928	      0.12231871	     63.59478018	     63.59478018	      6.97727818	    -17.90426548	      8.06202729	     -9.91701316	      5.86085166	      2.10590747	     19.38630707	    -19.79989726	     -6.59249012	     56.59331906	     45.18144818	      0.00000000	      0.00000000	      0.20470586	     -9.62234815	     -4.96534648	     28.26152143	     46.21132453	      0.00000000	      0.00000000
     31.47457143	     -1.32033479	     -3.28992357	      2.17308717	      1.03182361	      0.92992651	      0.49593465	     12.40457177	     -0.40752057	    -15.97395297	     21.24852834	     21.24852834	     10.85871961	     -5.83988798	     -4.99842881	     25.56944408	    -13.19328243	      0.58142234	     63.49067055	     63.49067055	      7.55985008	    -17.92368473	      9.85067419	    -10.06046737	      5.72582550	      2.30810210	     20.15579663	    -20.25303486	     -6.26802944	     59.45696927	     45.08869098	      0.00000000	      0.00000000	     -0.62774798	     -9.32945916	     -5.23422119	     28.76975849	     46.23043157	      0.00000000	      0.00000000
     31.48828571	     -1.37075493	     -3.24399454	      2.60750356	      1.03102055	      0.93095239	      0.49673787	     11.61765601	     -0.27086942	    -16.29995296	     20.32541266	     20.32541266	     10.83963709	     -5.73139045	     -4.98436373	     26.84423685	    -13.05140412	      0.93006130	     62.63003768	     62.63003768	      7.74862696	    -18.07486192	     10.19619889	    -10.08944247	      5.66614305	      2.33545296	     21.46285865	    -20.32915349	     -6.37260550	     60.89183113	     45.05594109	      0.00000000	      0.00000000	     -1.20556334	     -9.06076845	     -5.26981564	     28.55839441	     46.22382442	      0.00000000	      0.00000000
     31.50200000	     -1.43949379	     -3.17968454	      3.07525563	      1.03012592	      0.93194273	      0.49733194	     10.82096738	     -0.15727061	    -16.68153203	     19.33331715	     19.33331715	     10.76099949	     -5.57367901	     -5.11462823	     27.95030123	    -12.86474482	      1.14416040	     61.14725087	     61.14725087	      8.00392940	    -18.17463999	     10.57479676	    -10.15380797	      5.59157357	      2.27216521	     22.62472476	    -20.37024644	     -6.43305765	     62.84337087	     45.00496853	      0.00000000	      0.00000000	     -1.76102229	     -8.81440750	     -5.38728014	     28.45042317	     46.22968840	      0.00000000	      0.00000000
     31.51571429	     -1.59386523	     -3.06093204	      3.54512275	      1.02912660	      0.93282568	      0.49773680	     10.13483808	     -0.10830314	    -17.01639947	     18.36842901	     18.36842901	     10.70810294	     -5.47545473	     -5.13410456	     28.92160301	    -12.56386573	      1.22782769	     59.02716938	     59.02716938	      8.19827305	    -18.28561792	     10.87741281	    -10.09697482	      5.45245761	      2.30924728	     23.76279378	    -20.42599261	     -6.51706527	     64.35983643	     44.96634811	      0.00000000	      0.00000000	     -2.16685001	     -8.59932938	     -5.45168261	     28.33391706	     46.23121229	      0.00000000	      0.00000000
     31.52942857	     -1.69778468	     -2.99801530	      4.04849268	      1.02807104	      0.93367806	      0.49792667	      9.34340469	      0.00647328	    -17.42016037	     17.29207547	     17.29207547	     10.58925130	     -5.29560841	     -5.27556700	     29.65508252	    -12.27452387	      1.25549785	     56.38436523	     56.38436523	      8.38153484	    -18.31254120	     11.16663523	    -10.15601993	      5.41092743	      2.18920846	     24.82094420	    -20.37768415	     -6.57669004	     66.40724425	     44.91000547	      0.00000000	      0.00000000	     -2.54542351	     -8.41242509	     -5.56392702	     28.23381585	     46.24034813	      0.00000000	      0.00000000
